G75*
%MOIN*%
%OFA0B0*%
%FSLAX25Y25*%
%IPPOS*%
%LPD*%
%AMOC8*
5,1,8,0,0,1.08239X$1,22.5*
%
%ADD10R,0.03550X0.03943*%
%ADD11R,0.04731X0.04337*%
%ADD12C,0.07800*%
%ADD13C,0.02900*%
%ADD14OC8,0.07800*%
%ADD15R,0.07800X0.07800*%
D10*
X0008460Y0098363D03*
X0012200Y0106631D03*
X0015940Y0098363D03*
X0023660Y0098363D03*
X0027400Y0106631D03*
X0031140Y0098363D03*
X0038560Y0098363D03*
X0042300Y0106631D03*
X0046040Y0098363D03*
X0053360Y0098363D03*
X0057100Y0106631D03*
X0060840Y0098363D03*
D11*
X0060046Y0091600D03*
X0053354Y0091600D03*
X0045646Y0091600D03*
X0038954Y0091600D03*
X0038254Y0112400D03*
X0044946Y0112400D03*
X0053254Y0112400D03*
X0059946Y0112400D03*
X0030846Y0091700D03*
X0024154Y0091700D03*
X0023654Y0112400D03*
X0030346Y0112400D03*
X0015746Y0112300D03*
X0009054Y0112300D03*
X0008854Y0091800D03*
X0015546Y0091800D03*
D12*
X0019500Y0017500D03*
X0029500Y0016500D03*
X0039500Y0017500D03*
X0039500Y0067000D03*
X0039500Y0082000D03*
X0049500Y0082000D03*
X0049500Y0067000D03*
X0059500Y0082000D03*
X0059500Y0122000D03*
X0049500Y0122000D03*
X0039500Y0122000D03*
X0039500Y0137500D03*
X0029500Y0136500D03*
X0029500Y0122000D03*
X0019500Y0122000D03*
X0019500Y0137500D03*
X0009500Y0122000D03*
X0009500Y0082000D03*
X0019500Y0082000D03*
X0029500Y0082000D03*
X0029500Y0067000D03*
X0029500Y0187000D03*
X0039500Y0187000D03*
X0049500Y0187000D03*
D13*
X0049700Y0095600D03*
X0007000Y0108000D03*
D14*
X0019500Y0157000D03*
X0019500Y0167000D03*
X0029500Y0167000D03*
X0029500Y0157000D03*
X0039500Y0157000D03*
X0039500Y0167000D03*
X0049500Y0167000D03*
X0049500Y0157000D03*
X0049500Y0047000D03*
X0049500Y0037000D03*
X0039500Y0037000D03*
X0039500Y0047000D03*
X0029500Y0047000D03*
X0029500Y0037000D03*
X0019500Y0037000D03*
X0019500Y0047000D03*
D15*
X0019500Y0067000D03*
X0049500Y0016500D03*
X0049500Y0136500D03*
X0019500Y0187000D03*
M02*
