G75*
%MOIN*%
%OFA0B0*%
%FSLAX25Y25*%
%IPPOS*%
%LPD*%
%AMOC8*
5,1,8,0,0,1.08239X$1,22.5*
%
%ADD10C,0.07800*%
%ADD11OC8,0.07800*%
%ADD12R,0.07800X0.07800*%
D10*
X0019500Y0017500D03*
X0029500Y0016500D03*
X0039500Y0017500D03*
X0039500Y0067000D03*
X0039500Y0082000D03*
X0049500Y0082000D03*
X0049500Y0067000D03*
X0059500Y0082000D03*
X0059500Y0122000D03*
X0049500Y0122000D03*
X0039500Y0122000D03*
X0039500Y0137500D03*
X0029500Y0136500D03*
X0029500Y0122000D03*
X0019500Y0122000D03*
X0019500Y0137500D03*
X0009500Y0122000D03*
X0009500Y0082000D03*
X0019500Y0082000D03*
X0029500Y0082000D03*
X0029500Y0067000D03*
X0029500Y0187000D03*
X0039500Y0187000D03*
X0049500Y0187000D03*
D11*
X0049500Y0167000D03*
X0049500Y0157000D03*
X0039500Y0157000D03*
X0039500Y0167000D03*
X0029500Y0167000D03*
X0029500Y0157000D03*
X0019500Y0157000D03*
X0019500Y0167000D03*
X0019500Y0047000D03*
X0019500Y0037000D03*
X0029500Y0037000D03*
X0029500Y0047000D03*
X0039500Y0047000D03*
X0039500Y0037000D03*
X0049500Y0037000D03*
X0049500Y0047000D03*
D12*
X0049500Y0016500D03*
X0019500Y0067000D03*
X0049500Y0136500D03*
X0019500Y0187000D03*
M02*
