%
M48
M72
T01C0.0197
T02C0.0200
T03C0.0400
%
T01
X950Y700
X1450Y2700
X1450Y5700
X950Y13450
X950Y19450
X5450Y17700
X5450Y14700
X5450Y5700
X5450Y700
T02
X3420Y10780
T03
X2950Y12200
X2950Y13650
X2950Y15700
X2950Y16700
X2950Y18700
X1950Y18700
X1950Y16700
X1950Y15700
X1950Y13750
X1950Y12200
X950Y12200
X950Y8200
X1950Y8200
X1950Y6700
X1950Y4700
X1950Y3700
X1950Y1750
X2950Y1650
X2950Y3700
X2950Y4700
X2950Y6700
X2950Y8200
X3950Y8200
X3950Y6700
X3950Y4700
X3950Y3700
X3950Y1750
X4950Y1650
X4950Y3700
X4950Y4700
X4950Y6700
X4950Y8200
X5950Y8200
X5950Y12200
X4950Y12200
X4950Y13650
X4950Y15700
X4950Y16700
X4950Y18700
X3950Y18700
X3950Y16700
X3950Y15700
X3950Y13750
X3950Y12200
M30
